<svg xmlns="http://www.w3.org/2000/svg" viewBox="0 0 350 91.48682729393177" preserveAspectRatio="xMidYMid meet"
    class="css-18azjue" id="adfcfcdb">
    <defs id="SvgjsDefs1094">
        <linearGradient id="SvgjsLinearGradient1099">
            <stop id="SvgjsStop1100" stop-color="#00ff8f" offset="0" />
            <stop id="SvgjsStop1101" stop-color="#00a1ff" offset="1" />
        </linearGradient>
    </defs>
    <g id="SvgjsG1095" featurekey="X3o6dM-0"
        transform="matrix(4.217500542182038,0,0,4.217500542182038,-1.418973199900472,-30.197303238483883)"
        fill="#ffffff">
        <path
            d="M10.44 7.16 q0.36 0 0.93 0.04 t1.21 0.15 t1.3 0.3 t1.18 0.49 t0.85 0.72 t0.33 0.98 q0 0.76 -0.58 1.19 t-1.36 0.43 q-0.04 0 -0.18 -0.03 t-0.29 -0.08 t-0.26 -0.12 t-0.11 -0.17 q0 -0.2 0.23 -0.33 t0.5 -0.22 t0.5 -0.2 t0.23 -0.29 q0 -0.34 -0.49 -0.58 t-1.18 -0.39 t-1.45 -0.22 t-1.28 -0.07 q-0.5 0 -1.32 0.07 t-1.77 0.22 t-1.93 0.4 t-1.78 0.6 t-1.32 0.81 t-0.56 1.04 q-0.04 0.34 0.44 0.67 t1.26 0.64 t1.77 0.6 t1.99 0.56 t1.9 0.54 t1.5 0.51 q0.58 0.24 1.25 0.59 t1.25 0.8 t0.96 1.01 t0.38 1.24 q0 0.64 -0.32 1.09 t-0.85 0.74 t-1.21 0.42 t-1.4 0.13 q-1.62 0 -3.15 -0.31 t-2.97 -0.89 q-0.52 -0.2 -1.1 -0.51 t-1.06 -0.72 t-0.8 -0.9 t-0.32 -1.09 q0 -0.3 0.13 -0.6 t0.38 -0.54 t0.61 -0.39 t0.84 -0.15 q0.1 0 0.24 0.02 t0.24 0.08 t0.1 0.14 t-0.2 0.2 q-0.34 0.2 -0.61 0.34 t-0.46 0.28 t-0.28 0.29 t-0.09 0.35 q0 0.3 0.19 0.58 t0.47 0.52 t0.57 0.42 t0.51 0.28 q1.44 0.74 3.1 1.13 t3.34 0.39 q0.3 0 0.79 -0.02 t0.97 -0.14 t0.82 -0.36 t0.34 -0.7 q0 -0.6 -0.57 -1.09 t-1.4 -0.9 t-1.77 -0.71 t-1.66 -0.52 q-2.08 -0.6 -3.55 -1.06 t-2.38 -0.91 t-1.32 -0.93 t-0.37 -1.14 q0.06 -0.94 0.63 -1.66 t1.46 -1.24 t1.99 -0.87 t2.2 -0.56 t2.11 -0.3 t1.71 -0.09 z M18.78 16.5 q-0.16 0.22 -0.4 0.36 t-0.52 0.23 t-0.57 0.13 t-0.51 0.06 q-0.06 0.42 -0.07 0.82 t0.04 0.72 t0.16 0.54 t0.31 0.28 q0.26 0.08 0.56 -0.09 t0.58 -0.47 t0.54 -0.7 t0.46 -0.77 t0.34 -0.68 t0.18 -0.45 q0.06 -0.18 0.19 -0.24 t0.25 -0.04 t0.2 0.13 t0.04 0.29 q-0.04 0.12 -0.14 0.47 t-0.29 0.79 t-0.46 0.91 t-0.65 0.86 t-0.87 0.65 t-1.09 0.26 q-0.72 0 -1.12 -0.5 t-0.54 -1.26 t-0.05 -1.63 t0.36 -1.63 t0.68 -1.26 t0.91 -0.5 q0.48 0 0.85 0.33 t0.57 0.77 t0.23 0.9 t-0.17 0.72 z M17.54 14.719999999999999 q-0.14 0.06 -0.3 0.51 t-0.3 1.09 q0.22 0 0.44 -0.05 t0.32 -0.21 q0.08 -0.12 0.1 -0.35 t-0.01 -0.47 t-0.1 -0.4 t-0.15 -0.12 z M20.500000000000004 16.740000000000002 q-0.04 0.16 -0.17 0.23 t-0.27 0.04 t-0.22 -0.14 t0 -0.29 l0.12 -0.34 q-0.18 -0.18 -0.2 -0.42 t0.08 -0.45 t0.29 -0.36 t0.43 -0.15 q0.42 0 0.46 0.31 t-0.12 0.69 q0.12 0.06 0.39 0.02 t0.51 -0.05 t0.4 0.09 t0.08 0.46 t-0.17 0.86 t-0.13 0.95 t0 0.77 t0.22 0.32 q0.12 0 0.31 -0.35 t0.39 -0.81 t0.36 -0.93 t0.2 -0.71 q0.04 -0.2 0.17 -0.28 t0.27 -0.07 t0.23 0.12 t0.07 0.31 q-0.02 0.1 -0.1 0.43 t-0.22 0.74 t-0.34 0.86 t-0.48 0.83 t-0.62 0.61 t-0.76 0.21 q-0.48 -0.02 -0.7 -0.43 t-0.28 -0.98 t0.03 -1.21 t0.25 -1.12 q-0.1 0.02 -0.2 0.02 l-0.2 0 q-0.06 0.1 -0.08 0.22 z M27.900000000000002 15.76 q-0.1 0.98 -0.12 1.72 t-0.04 1.36 q0.74 -0.92 1.26 -2.36 q0.06 -0.2 0.19 -0.27 t0.26 -0.03 t0.2 0.16 t0.01 0.32 q-0.36 1.18 -0.89 1.99 t-1.11 1.35 q-0.04 0.32 -0.11 0.64 t-0.17 0.66 q-0.32 1 -0.91 1.47 t-1.2 0.56 t-1.14 -0.13 t-0.71 -0.6 q-0.3 -0.64 -0.07 -1.13 t0.73 -0.83 t1.1 -0.53 t1.04 -0.23 l0.06 -0.54 q-0.16 0.22 -0.43 0.38 t-0.69 0.16 q-0.74 0 -1.16 -0.42 t-0.57 -1.06 t-0.06 -1.38 t0.37 -1.37 t0.74 -1.04 t1.06 -0.41 q0.36 0 0.7 0.24 q0.4 0.28 0.58 0.68 q0.18 -0.04 0.37 -0.03 t0.36 0.08 t0.27 0.22 t0.08 0.37 z M26.14 18.18 q0.18 -0.46 0.24 -1 t0.01 -1 t-0.21 -0.79 t-0.4 -0.37 q-0.26 -0.04 -0.47 0.25 t-0.36 0.74 t-0.21 0.98 t-0.01 0.99 t0.22 0.77 t0.49 0.31 q0.16 0 0.27 -0.09 t0.18 -0.22 t0.13 -0.29 t0.12 -0.28 z M26.1 20.62 q-0.58 0.1 -1.07 0.41 t-0.59 0.87 q-0.06 0.32 0.11 0.48 t0.43 0.08 t0.56 -0.45 t0.5 -1.11 z M29.02 15.84 q0 -0.48 0.25 -0.66 t0.55 -0.14 t0.52 0.26 t0.16 0.54 q-0.08 0.36 -0.15 0.9 t-0.09 1.04 t0.03 0.86 t0.23 0.36 q0.12 0 0.29 -0.31 t0.33 -0.73 t0.3 -0.84 t0.18 -0.64 q0.06 -0.2 0.2 -0.27 t0.27 -0.04 t0.22 0.15 t0.03 0.3 q-0.04 0.12 -0.13 0.45 t-0.23 0.73 t-0.33 0.83 t-0.44 0.76 t-0.55 0.51 t-0.66 0.08 q-0.54 -0.16 -0.77 -0.59 t-0.27 -1 t0.01 -1.24 t0.05 -1.31 z M31.3 13.1 q0.04 0.22 -0.05 0.41 t-0.27 0.34 t-0.42 0.25 t-0.5 0.14 q-0.5 0.06 -0.98 -0.1 t-0.54 -0.58 q-0.08 -0.44 0.27 -0.75 t0.93 -0.41 t1.04 0.09 t0.52 0.61 z M33.44 19.48 q-0.74 0 -1.18 -0.38 t-0.61 -0.94 t-0.1 -1.22 t0.34 -1.21 t0.71 -0.91 t1.04 -0.32 q0.7 0.04 1.14 0.42 t0.64 0.94 t0.17 1.19 t-0.29 1.17 t-0.73 0.9 t-1.13 0.36 z M33.7 18.58 q0.22 0.02 0.36 -0.21 t0.2 -0.6 t0.05 -0.81 t-0.1 -0.82 t-0.25 -0.64 t-0.38 -0.26 q-0.2 0 -0.34 0.24 t-0.21 0.6 t-0.07 0.79 t0.08 0.8 t0.24 0.63 t0.42 0.28 z M44.3 9.76 q-1.02 0.36 -1.66 0.58 t-1.03 0.35 t-0.6 0.18 t-0.37 0.05 q-0.48 0 -0.48 -0.24 q0 -0.14 0.14 -0.32 t0.31 -0.34 t0.33 -0.28 t0.22 -0.14 q0.82 -0.56 1.8 -0.97 t2.03 -0.68 t2.14 -0.41 t2.15 -0.14 q0.64 0 1.34 0.06 t1.34 0.14 q0.54 0.08 1.21 0.22 t1.37 0.36 t1.36 0.53 t1.18 0.73 t0.83 0.97 t0.31 1.23 q0 0.98 -0.53 1.73 t-1.37 1.29 t-1.89 0.92 t-2.1 0.63 t-2 0.4 t-1.57 0.23 q-0.02 0.62 -0.09 1.46 t-0.19 1.6 t-0.3 1.29 t-0.44 0.53 q-0.16 0 -0.26 -0.32 q-0.28 -0.72 -0.33 -1.76 t-0.05 -2.58 q-0.88 0.1 -1.73 0.18 t-1.69 0.16 q-0.02 -0.02 -0.27 0 t-0.63 0.05 t-0.81 0.05 t-0.8 0 t-0.62 -0.1 t-0.25 -0.24 t0.47 -0.3 t1.1 -0.24 t1.23 -0.16 t0.88 -0.1 q0.76 -0.04 1.54 -0.15 t1.6 -0.23 q0.06 -0.16 0.09 -0.56 t0.07 -0.9 t0.09 -1.03 t0.13 -0.97 t0.21 -0.73 t0.35 -0.29 q0.44 0 0.68 0.24 t0.33 0.62 t0.08 0.84 t-0.07 0.93 t-0.14 0.88 t-0.1 0.67 q0.44 -0.06 1.21 -0.19 t1.65 -0.34 t1.78 -0.51 t1.63 -0.72 t1.19 -0.95 t0.46 -1.21 q0 -0.54 -0.37 -0.95 t-0.97 -0.72 t-1.37 -0.52 t-1.58 -0.34 t-1.6 -0.18 t-1.41 -0.05 q-1.32 0 -2.61 0.21 t-2.55 0.55 z M60.6 16.5 q-0.16 0.22 -0.4 0.36 t-0.52 0.23 t-0.57 0.13 t-0.51 0.06 q-0.06 0.42 -0.07 0.82 t0.04 0.72 t0.16 0.54 t0.31 0.28 q0.26 0.08 0.56 -0.09 t0.58 -0.47 t0.54 -0.7 t0.46 -0.77 t0.34 -0.68 t0.18 -0.45 q0.06 -0.18 0.19 -0.24 t0.25 -0.04 t0.2 0.13 t0.04 0.29 q-0.04 0.12 -0.14 0.47 t-0.29 0.79 t-0.46 0.91 t-0.65 0.86 t-0.87 0.65 t-1.09 0.26 q-0.72 0 -1.12 -0.5 t-0.54 -1.26 t-0.05 -1.63 t0.36 -1.63 t0.68 -1.26 t0.91 -0.5 q0.48 0 0.85 0.33 t0.57 0.77 t0.23 0.9 t-0.17 0.72 z M59.36 14.719999999999999 q-0.14 0.06 -0.3 0.51 t-0.3 1.09 q0.22 0 0.44 -0.05 t0.32 -0.21 q0.08 -0.12 0.1 -0.35 t-0.01 -0.47 t-0.1 -0.4 t-0.15 -0.12 z M62.32 16.740000000000002 q-0.04 0.16 -0.17 0.23 t-0.27 0.04 t-0.22 -0.14 t0 -0.29 l0.12 -0.34 q-0.18 -0.18 -0.2 -0.42 t0.08 -0.45 t0.29 -0.36 t0.43 -0.15 q0.42 0 0.46 0.31 t-0.12 0.69 q0.12 0.06 0.39 0.02 t0.51 -0.05 t0.4 0.09 t0.08 0.46 t-0.17 0.86 t-0.13 0.95 t0 0.77 t0.22 0.32 q0.12 0 0.31 -0.35 t0.39 -0.81 t0.36 -0.93 t0.2 -0.71 q0.04 -0.2 0.17 -0.28 t0.27 -0.07 t0.23 0.12 t0.07 0.31 q-0.02 0.1 -0.1 0.43 t-0.22 0.74 t-0.34 0.86 t-0.48 0.83 t-0.62 0.61 t-0.76 0.21 q-0.48 -0.02 -0.7 -0.43 t-0.28 -0.98 t0.03 -1.21 t0.25 -1.12 q-0.1 0.02 -0.2 0.02 l-0.2 0 q-0.06 0.1 -0.08 0.22 z M67.64 14.54 q0.28 0.06 0.49 0.26 t0.35 0.44 q0.16 -0.18 0.4 -0.2 t0.46 0.07 t0.36 0.28 t0.1 0.45 q-0.08 0.36 -0.15 0.9 t-0.09 1.04 t0.03 0.86 t0.21 0.36 q0.12 0 0.29 -0.31 t0.34 -0.73 t0.31 -0.84 t0.18 -0.64 q0.06 -0.2 0.2 -0.27 t0.27 -0.04 t0.22 0.15 t0.03 0.3 q-0.04 0.12 -0.13 0.45 t-0.23 0.73 t-0.33 0.83 t-0.44 0.76 t-0.56 0.51 t-0.67 0.08 q-0.58 -0.16 -0.84 -0.7 q-0.16 0.48 -0.44 0.87 t-0.72 0.57 q-0.42 0.14 -0.74 0.06 q-0.58 -0.16 -0.92 -0.72 t-0.46 -1.3 t-0.02 -1.54 t0.41 -1.44 t0.83 -1.01 t1.26 -0.23 z M68.16 16.56 q-0.04 -0.34 -0.15 -0.66 t-0.33 -0.36 q-0.32 -0.06 -0.57 0.23 t-0.41 0.77 t-0.23 1.05 t-0.04 1.08 t0.16 0.87 t0.39 0.4 t0.49 -0.28 t0.4 -0.82 t0.26 -1.11 t0.03 -1.17 z M71.26 11.64 q0 -0.48 0.26 -0.67 t0.57 -0.17 t0.54 0.22 t0.17 0.52 q-0.04 0.24 -0.13 0.94 t-0.17 1.61 t-0.14 1.89 t-0.07 1.81 t0.06 1.36 t0.27 0.53 q0.12 0 0.33 -0.44 t0.42 -1 t0.39 -1.09 t0.24 -0.69 q0.04 -0.18 0.18 -0.24 t0.27 -0.03 t0.22 0.14 t0.03 0.29 q-0.12 0.4 -0.32 1.12 t-0.5 1.42 t-0.72 1.22 t-1 0.52 q-0.54 0 -0.81 -0.57 t-0.37 -1.45 t-0.07 -1.96 t0.11 -2.11 t0.16 -1.88 t0.08 -1.29 z M74.22 13.440000000000001 q0 -0.14 0.01 -0.27 t0.01 -0.23 q0 -0.48 0.26 -0.67 t0.56 -0.17 t0.53 0.22 t0.17 0.52 l-0.1 0.52 l0.48 0 q0.38 0 0.55 0.13 t0.17 0.28 t-0.18 0.27 t-0.5 0.12 l-0.6 0 q-0.08 0.72 -0.14 1.59 t-0.08 1.64 t0.02 1.28 t0.18 0.51 q0.12 0 0.33 -0.36 t0.43 -0.83 t0.4 -0.92 t0.24 -0.61 q0.04 -0.18 0.18 -0.24 t0.27 -0.03 t0.22 0.14 t0.03 0.29 q-0.12 0.4 -0.32 1.04 t-0.5 1.24 t-0.72 1.04 t-1 0.44 q-0.38 0 -0.62 -0.3 t-0.36 -0.79 t-0.15 -1.13 t-0.01 -1.32 t0.08 -1.37 t0.1 -1.27 l-0.48 0 q-0.32 0 -0.49 -0.12 t-0.18 -0.26 t0.15 -0.26 t0.52 -0.12 l0.54 0 z M79.3 14.54 q0.28 0.06 0.49 0.26 t0.35 0.44 q0.16 -0.18 0.4 -0.2 t0.46 0.07 t0.36 0.28 t0.1 0.45 q-0.08 0.36 -0.15 0.9 t-0.09 1.04 t0.03 0.86 t0.21 0.36 q0.12 0 0.29 -0.31 t0.34 -0.73 t0.31 -0.84 t0.18 -0.64 q0.06 -0.2 0.2 -0.27 t0.27 -0.04 t0.22 0.15 t0.03 0.3 q-0.04 0.12 -0.13 0.45 t-0.23 0.73 t-0.33 0.83 t-0.44 0.76 t-0.56 0.51 t-0.67 0.08 q-0.58 -0.16 -0.84 -0.7 q-0.16 0.48 -0.44 0.87 t-0.72 0.57 q-0.42 0.14 -0.74 0.06 q-0.58 -0.16 -0.92 -0.72 t-0.46 -1.3 t-0.02 -1.54 t0.41 -1.44 t0.83 -1.01 t1.26 -0.23 z M79.82 16.56 q-0.04 -0.34 -0.15 -0.66 t-0.33 -0.36 q-0.32 -0.06 -0.57 0.23 t-0.41 0.77 t-0.23 1.05 t-0.04 1.08 t0.16 0.87 t0.39 0.4 t0.49 -0.28 t0.4 -0.82 t0.26 -1.11 t0.03 -1.17 z" />
    </g>
    <g id="SvgjsG1096" featurekey="RFbU7s-0"
        transform="matrix(0.9365851915287101,0,0,0.9365851915287101,21.438049421001118,72.56780571049403)"
        fill="url(#SvgjsLinearGradient1099)">
        <path
            d="M20.3 6 l-4.58 14 l-1.86 0 l-3.42 -9.34 l-3.4 9.34 l-1.86 0 l-4.58 -14 l2.76 0 l2.86 8.84 l3.22 -8.84 l2.02 0 l3.22 8.84 l2.86 -8.84 l2.76 0 z M38.56 17.58 l6.1 0 l0 2.42 l-6.5 0 l-2.22 0 l0 -14 l2.62 0 l5.92 0 l0 2.42 l-5.92 0 l0 3.36 l4.5 0 l0 2.36 l-4.5 0 l0 3.44 z M68.08000000000001 12.26 c1.58 0.4 2.94 1.76 2.94 3.66 c0 2.54 -1.6 4.08 -5.1 4.08 l-5.32 0 l0 -14 l5.1 0 c2.88 0 4.32 1.62 4.32 3.48 c0 1.46 -0.92 2.36 -1.94 2.78 z M65.48 8.3 l-2.26 0 l0 3.18 l2.26 0 c1.32 0 1.94 -0.66 1.94 -1.6 c0 -1 -0.66 -1.58 -1.94 -1.58 z M65.80000000000001 17.7 c1.78 0 2.6 -0.74 2.6 -2.08 c0 -1.16 -0.82 -2.02 -2.68 -2.02 l-2.5 0 l0 4.1 l2.58 0 z M111.4 6 c4 0 7.08 3.1 7.08 6.94 c0 3.96 -3.08 7.06 -7.08 7.06 l-4.8 0 l0 -14 l4.8 0 z M111.38000000000001 17.52 c2.84 0 4.44 -2.06 4.44 -4.58 c0 -2.4 -1.6 -4.46 -4.44 -4.46 l-2.16 0 l0 9.04 l2.16 0 z M136.94 17.58 l6.1 0 l0 2.42 l-6.5 0 l-2.22 0 l0 -14 l2.62 0 l5.92 0 l0 2.42 l-5.92 0 l0 3.36 l4.5 0 l0 2.36 l-4.5 0 l0 3.44 z M170.2 6 l2.78 0 l-6.22 14 l-2.34 0 l-6.24 -14 l2.78 0 l4.62 10.76 z M191.04 17.58 l6.1 0 l0 2.42 l-6.5 0 l-2.22 0 l0 -14 l2.62 0 l5.92 0 l0 2.42 l-5.92 0 l0 3.36 l4.5 0 l0 2.36 l-4.5 0 l0 3.44 z M215.7 17.58 l5.68 0 l0 2.42 l-8.3 0 l0 -14 l2.62 0 l0 11.58 z M244.15999999999997 5.800000000000001 c3.84 0 7.24 2.96 7.24 7.2 s-3.4 7.2 -7.24 7.2 s-7.24 -2.96 -7.24 -7.2 s3.4 -7.2 7.24 -7.2 z M244.15999999999997 17.740000000000002 c2.44 0 4.5 -1.98 4.5 -4.74 s-2.06 -4.74 -4.5 -4.74 c-2.46 0 -4.52 1.98 -4.52 4.74 s2.06 4.74 4.52 4.74 z M272.15999999999997 6 c3.14 0 5.12 1.92 5.12 4.7 s-1.98 4.54 -5.12 4.54 l-2.2 0 l0 4.76 l-2.62 0 l0 -14 l4.82 0 z M272.02 12.98 c1.58 0 2.64 -0.68 2.64 -2.28 c0 -1.58 -1.06 -2.28 -2.64 -2.28 l-2.06 0 l0 4.56 l2.06 0 z M295.64 17.58 l6.1 0 l0 2.42 l-6.5 0 l-2.22 0 l0 -14 l2.62 0 l5.92 0 l0 2.42 l-5.92 0 l0 3.36 l4.5 0 l0 2.36 l-4.5 0 l0 3.44 z M328.52000000000004 20 l-2.78 0 l-3.12 -4.76 l-0.12 0 l-2.2 0 l0 4.76 l-2.62 0 l0 -14 l4.82 0 c3.14 0 5.12 1.92 5.12 4.7 c0 1.94 -0.96 3.38 -2.6 4.08 z M320.3 8.42 l0 4.56 l2.06 0 c1.58 0 2.64 -0.68 2.64 -2.28 c0 -1.58 -1.06 -2.28 -2.64 -2.28 l-2.06 0 z" />
    </g>
</svg>